# xmcd
#
# Track frame offsets: 
#        150
#        44530
#        97732
#        132415
#        182907
#        211745
#        236397
#
# Disc length: 3289 seconds
#
# Revision: 2
# Processed by: cddbd v1.5.2PL0 Copyright (c) Steve Scherf et al.
# Submitted via: ExactAudioCopy v0.95b4
#
DISCID=570cd707
DTITLE=Istvan Kertesz: London Symphony Orchestra - Dvo?ak: Symphony #9
DTITLE=Smetana: The Bartered Bride
DYEAR=1900
DGENRE=
TTITLE0=Dvo??k: Symphony #9 In E Minor, Op. 95, B 178, "From The New W
TTITLE0=orld" - 1. Adagio, Allegro Molto
TTITLE1=Dvo??k: Symphony #9 In E Minor, Op. 95, B 178, "From The New W
TTITLE1=orld" - 2. Largo
TTITLE2=Dvo??k: Symphony #9 In E Minor, Op. 95, B 178, "From The New W
TTITLE2=orld" - 3. Scherzo: Molto Vivace
TTITLE3=Dvo??k: Symphony #9 In E Minor, Op. 95, B 178, "From The New W
TTITLE3=orld" - 4. Allegro Con Fuoco
TTITLE4=Smetana: The Bartered Bride - Overture
TTITLE5=Smetana: The Bartered Bride - Polka
TTITLE6=Smetana: The Bartered Bride - Furiant
EXTD=
EXTT0=
EXTT1=
EXTT2=
EXTT3=
EXTT4=
EXTT5=
EXTT6=
PLAYORDER=
